<svg width="100" height="100" viewBox="0 0 100 100" fill="none" xmlns="http://www.w3.org/2000/svg">
<path d="M58.8383 16.8305C52.8022 15.1397 46.4155 15.1543 40.3872 16.8727C39.1227 17.2331 37.8055 16.5002 37.4448 15.2358C37.0844 13.9713 37.8173 12.654 39.0818 12.2936C45.9564 10.334 53.2393 10.3173 60.1225 12.2455C61.3886 12.6001 62.1275 13.914 61.7728 15.1801C61.4181 16.4462 60.1044 17.1851 58.8383 16.8305Z" fill="black"/>
<path d="M49.7379 83.424C43.151 83.4338 36.7034 81.5256 31.1825 77.9329C25.6616 74.3398 21.306 69.2173 18.6474 63.1907C15.9889 57.164 15.1423 50.4934 16.2111 43.9938C17.2798 37.4938 20.2177 31.4458 24.6661 26.5876C25.554 25.6179 25.4877 24.112 24.5179 23.224C23.5482 22.3361 22.0422 22.4024 21.1543 23.3721C16.0816 28.9121 12.7314 35.8093 11.5127 43.2213C10.2939 50.6333 11.2593 58.2398 14.291 65.1125C17.3226 71.9849 22.2895 77.8266 28.5853 81.9238C34.8811 86.021 42.2335 88.1966 49.7452 88.1855C57.2568 88.1741 64.6025 85.9762 70.8861 81.8603C77.1697 77.7444 82.119 71.8882 85.13 65.0062C88.1412 58.1246 89.0837 50.5153 87.8427 43.1068C86.602 35.6985 83.2309 28.8116 78.1418 23.2868C77.2509 22.3197 75.7447 22.2579 74.7777 23.1488C73.8105 24.0396 73.7489 25.5457 74.6397 26.5128C79.1027 31.3577 82.0584 37.397 83.1469 43.8935C84.235 50.39 83.4083 57.0628 80.7679 63.0977C78.1275 69.1323 73.7873 74.2678 68.2771 77.8774C62.767 81.4866 56.3251 83.4142 49.7379 83.424Z" fill="black"/>
<path fill-rule="evenodd" clip-rule="evenodd" d="M46.1153 45.9922C45.5632 45.7076 45.0641 45.3586 44.6324 44.9573L34.0927 66.7245C33.5556 67.9287 31.5861 68.0448 30.7661 66.9957C30.7536 66.9792 30.7321 66.9522 30.7026 66.9158C30.0359 66.0865 25.2994 60.195 28.1956 53.5732C30.9338 47.1899 41.6057 38.8232 43.9364 36.9959L43.9378 36.9948C44.1801 36.8048 44.3323 36.6855 44.3751 36.6471C45.2924 35.9892 46.1242 35.4176 47.0418 35.0306C44.9939 34.6468 43.499 32.8946 43.499 30.7153C43.499 29.4095 44.0356 28.2571 44.9063 27.4604C41.5613 23.1167 37.0371 22.1299 31.5217 22.3292C28.7323 22.4301 29.0182 18.4798 31.3216 18.4633C33.6249 18.4468 37.7255 19.6714 40.7273 21.6044C42.1279 22.5708 43.374 23.6264 44.5545 25.3167C44.9304 25.8552 45.2651 26.4065 45.5599 26.9682C46.2312 26.5567 47.0285 26.3215 47.8928 26.3215H51.4627C52.3151 26.3215 53.1022 26.5502 53.7676 26.9511C54.0603 26.3953 54.392 25.8497 54.7643 25.3167C55.9444 23.6264 57.1905 22.5708 58.5915 21.6044C61.5932 19.6714 65.6935 18.4468 67.997 18.4633C70.3005 18.4798 70.5864 22.4301 67.7969 22.3292C62.2898 22.1302 57.7709 23.1137 54.4276 27.4406C55.311 28.2379 55.8565 29.3987 55.8565 30.7153C55.8565 32.908 54.3435 34.6684 52.276 35.0375C53.3953 35.4809 54.3604 36.1218 55.0316 36.6471L55.1377 36.7298L55.2201 36.7937C57.1284 38.274 68.3239 46.9589 71.1611 53.5732C74.0568 60.1941 69.3221 66.0848 68.6545 66.9154L68.6218 66.956C68.6084 66.9727 68.5979 66.986 68.5905 66.9957C67.7707 68.0448 65.8013 67.9287 65.2639 66.7245L54.7296 44.9687C54.4834 45.1963 54.2155 45.4069 53.9286 45.5984C53.9468 45.6346 53.9275 45.6735 53.8654 45.7152C52.8635 46.3861 51.769 47.4045 51.769 48.2204C51.769 48.9398 51.9137 49.1693 52.9822 49.8935C55.2006 50.9731 56.9011 53.1082 57.0878 55.882C57.57 60.3815 57.6122 67.167 55.6815 72.2124C55.0435 74.0283 54.2853 75.5656 53.3776 76.6934C52.4751 77.8148 51.1922 78.7992 49.5489 78.7992C47.9056 78.7992 46.6226 77.8148 45.7201 76.6934C44.8067 75.5586 44.045 74.0095 43.4045 72.1791L43.3953 72.1524C43.3905 72.1381 43.3859 72.1237 43.3814 72.1093C41.811 67.1238 41.8456 60.3643 42.167 55.9131C42.1695 55.8779 42.173 55.8427 42.1771 55.8075C42.4478 53.5112 43.6797 51.5901 45.4243 50.4035C45.4363 50.3551 45.4796 50.3037 45.5581 50.2492L45.7597 50.1093C47.0591 49.2084 47.3495 49.007 47.3495 48.2204C47.3495 47.5061 46.8825 46.6248 46.1153 45.9922ZM52.1602 39.6619L51.9696 39.2682C51.5315 38.569 50.647 38.063 49.687 38.063C48.3264 38.063 47.1164 39.0797 47.1164 40.2237V41.1136C47.1164 42.2575 48.3264 43.2743 49.687 43.2743C51.048 43.2743 52.2576 42.2575 52.2576 41.1136V40.2237C52.2576 40.0314 52.2234 39.8427 52.1602 39.6619ZM31.9758 54.9291C33.1854 52.0819 36.361 48.6925 39.5362 45.7098L31.9758 61.437C31.371 59.6744 30.9173 57.2339 31.9758 54.9291ZM59.8203 45.7098C62.9959 48.6925 66.1712 52.0819 67.3808 54.9291C68.4395 57.2339 67.9858 59.6744 67.3808 61.437L59.8203 45.7098ZM47.7094 29.9241C47.4068 29.9241 47.1038 30.3197 47.1038 30.7153C47.1038 31.111 47.4068 31.5066 47.7094 31.5066H51.6461C51.9491 31.5066 52.2517 31.111 52.2517 30.7153C52.2517 30.3197 51.9491 29.9241 51.6461 29.9241H47.7094ZM46.5405 64.1546C46.4541 62.7914 46.4273 61.4095 46.4431 60.0772L48.713 61.535C49.3008 61.9125 50.0549 61.9125 50.6427 61.535L52.9051 60.0821C52.9369 61.4142 52.9115 62.7966 52.8094 64.1583L49.678 66.1696L46.5405 64.1546ZM47.121 68.7717C47.2571 69.4359 47.4167 70.071 47.6026 70.6661C48.1495 72.2206 48.6939 73.2145 49.1476 73.7783C49.3319 74.0073 49.4667 74.1253 49.5489 74.1843C49.631 74.1253 49.7659 74.0073 49.9502 73.7783C50.4073 73.2104 50.9561 72.2057 51.5072 70.6312C51.5151 70.6087 51.5234 70.5862 51.5319 70.564C51.7364 70.0329 51.9146 69.4682 52.069 68.8781L50.6427 69.7941C50.0549 70.1716 49.3008 70.1716 48.713 69.7941L47.121 68.7717ZM49.678 57.9105L46.663 55.9742C46.989 54.657 48.153 53.687 49.6282 53.687C51.2703 53.687 52.444 54.8061 52.6293 56.015L49.678 57.9105Z" fill="black"/>
</svg>
