<svg width="230" height="99" viewBox="0 0 230 99" fill="none" xmlns="http://www.w3.org/2000/svg">
<path d="M127.692 62.0289L134.849 36.9053H128.822L124.453 55.0607L119.707 36.9053H115.525L110.742 55.0607L106.335 36.9053H100.346L107.54 62.0289H113.228L117.597 44.7776L122.004 62.0289H127.692Z" fill="#F6F8FC"/>
<path d="M164.418 62.0289L154.738 36.9053H148.033L138.315 62.0289H144.417L145.999 57.7725H156.772L158.316 62.0289H164.418ZM155.303 53.0643H147.468L151.385 42.254L155.303 53.0643Z" fill="#F6F8FC"/>
<path d="M180.681 62.4809C187.461 62.4809 190.738 59.0153 190.738 54.4201C190.738 45.0412 176.312 47.7155 176.312 43.7227C176.312 42.2161 177.592 41.1991 179.89 41.1991C182.451 41.1991 185.163 42.0655 187.197 43.9489L190.173 40.0313C187.687 37.7338 184.372 36.5283 180.38 36.5283C174.466 36.5283 170.85 39.9939 170.85 44.1748C170.85 53.6292 185.314 50.578 185.314 55.0229C185.314 56.4543 183.883 57.8101 180.945 57.8101C177.479 57.8101 174.729 56.2658 172.959 54.4201L170.059 58.4881C172.394 60.8611 175.86 62.4809 180.681 62.4809Z" fill="#F6F8FC"/>
<path d="M204.961 62.0289V53.1017H211.365C216.789 53.1017 219.802 49.3729 219.802 45.0035C219.802 40.5964 216.827 36.9053 211.365 36.9053H199.613V62.0289H204.961ZM210.649 48.3935H204.961V41.6135H210.649C212.759 41.6135 214.34 42.8942 214.34 45.0035C214.34 47.0751 212.759 48.3935 210.649 48.3935Z" fill="#F6F8FC"/>
<path d="M44.9702 45.7215C43.9788 45.0915 54.1032 45.0502 53.1017 45.7215C52.0998 46.3925 51.0054 47.4108 51.0054 48.2268C51.0054 49.0424 51.1913 49.2283 52.6988 50.2197C54.2063 51.2107 43.323 51.2777 44.7944 50.2555C46.2658 49.2334 46.5859 49.0526 46.5859 48.2268C46.5859 47.4007 45.9612 46.3512 44.9702 45.7215Z" fill="#F6F8FC"/>
<path fill-rule="evenodd" clip-rule="evenodd" d="M30.4188 77.9392C35.9397 81.532 42.3873 83.4402 48.9742 83.4303C55.5614 83.4205 62.0033 81.493 67.5135 77.8837C73.0236 74.2741 77.3638 69.1386 80.0042 63.104C82.6446 57.0692 83.4713 50.3963 82.3832 43.8998C81.2947 37.4034 78.339 31.364 73.8761 26.5192C72.9852 25.5521 73.0468 24.0459 74.0141 23.1551C74.981 22.2643 76.4873 22.3261 77.3781 23.2931C82.4673 28.8179 85.8383 35.7049 87.079 43.1131C88.3201 50.5216 87.3775 58.131 84.3663 65.0126C81.3553 71.8945 76.4061 77.7508 70.1225 81.8667C63.8389 85.9826 56.4931 88.1804 48.9815 88.1918C41.4698 88.2029 34.1175 86.0273 27.8217 81.9301C21.5259 77.8329 16.559 71.9916 13.5273 65.1189C10.4956 58.2461 9.5302 50.6396 10.749 43.2276C11.9677 35.8156 15.3179 28.9185 20.3906 23.3785C21.2786 22.4087 22.7845 22.3424 23.7543 23.2304C24.724 24.1183 24.7903 25.6242 23.9024 26.594C19.454 31.4521 16.5161 37.5001 15.4474 44.0001C14.3786 50.5001 15.2252 57.1704 17.8837 63.197C20.5423 69.224 24.8979 74.3461 30.4188 77.9392Z" fill="#8493AD"/>
<path fill-rule="evenodd" clip-rule="evenodd" d="M58.0751 16.8366C52.039 15.1458 45.6523 15.1604 39.6241 16.8788C38.3595 17.2392 37.0423 16.5063 36.6816 15.2419C36.3212 13.9774 37.0541 12.6601 38.3186 12.2997C45.1932 10.3401 52.4761 10.3234 59.3593 12.2516C60.6254 12.6062 61.3643 13.9201 61.0096 15.1862C60.6549 16.4524 59.3412 17.1912 58.0751 16.8366Z" fill="#8493AD"/>
<path d="M51.5972 30.8804C55.0332 23.6197 60.2931 22.0919 67.0332 22.3356C69.8227 22.4364 69.5368 18.4861 67.2333 18.4696C64.9299 18.4532 60.8295 19.6777 57.8278 21.6107C56.4268 22.5772 55.1807 23.6327 54.0006 25.323C52.7821 27.0679 51.9972 28.9474 51.5972 30.8804Z" fill="#F6F8FC"/>
<path d="M46.1942 30.8804C42.7579 23.6197 37.498 22.0919 30.758 22.3356C27.9686 22.4364 28.2545 18.4861 30.5579 18.4696C32.8612 18.4532 36.9619 19.6777 39.9636 21.6107C41.3642 22.5772 42.6103 23.6327 43.7908 25.323C45.009 27.0679 45.7939 28.9474 46.1942 30.8804Z" fill="#F6F8FC"/>
<path fill-rule="evenodd" clip-rule="evenodd" d="M48.9229 46.8394C46.9093 46.8394 45.1099 46.1184 43.8683 44.9636L33.3285 66.7308C32.7914 67.935 30.822 68.0511 30.002 67.002C29.9894 66.9855 29.9679 66.9586 29.9384 66.9221C29.2717 66.0928 24.5352 60.2013 27.4314 53.5796C30.4556 46.5295 43.1573 37.0602 43.611 36.6535C45.3117 35.4337 46.7187 34.5105 48.9229 34.5105C51.0991 34.5105 53.1158 35.7522 54.2674 36.6535C55.419 37.5547 67.4418 46.6903 70.3969 53.5799C73.293 60.2013 68.5566 66.0928 67.8901 66.9221C67.8606 66.9586 67.839 66.9855 67.8263 67.002C67.0066 68.0515 65.0371 67.935 64.4997 66.7308L53.9654 44.975C52.724 46.1228 50.93 46.8394 48.9229 46.8394ZM51.2054 39.2748L51.3961 39.6682C51.4592 39.849 51.4935 40.0378 51.4935 40.23V41.1199C51.4935 42.2639 50.2838 43.2806 48.9229 43.2806C47.5622 43.2806 46.3522 42.2639 46.3522 41.1199V40.23C46.3522 39.0861 47.5622 38.0693 48.9229 38.0693C49.8828 38.0693 50.7673 38.5753 51.2054 39.2748ZM38.7721 45.7161C35.5968 48.6988 32.4212 52.0882 31.2117 54.9354C30.1532 57.2402 30.6068 59.6807 31.2117 61.4433L38.7721 45.7161ZM66.6167 54.9354C65.407 52.0882 62.2318 48.6988 59.0562 45.7161L66.6167 61.4433C67.2217 59.6807 67.6753 57.2402 66.6167 54.9354Z" fill="#F6F8FC"/>
<path fill-rule="evenodd" clip-rule="evenodd" d="M47.1296 35.115H50.6995C53.1712 35.115 55.0933 33.1928 55.0933 30.7214C55.0933 28.2499 53.1712 26.3277 50.6995 26.3277L47.1296 26.3276C44.6583 26.3276 42.7358 28.2499 42.7358 30.7214C42.7358 33.1928 44.6583 35.115 47.1296 35.115ZM46.9463 29.9302C46.6436 29.9302 46.3407 30.3258 46.3407 30.7215C46.3407 31.1171 46.6436 31.5127 46.9463 31.5127H50.8829C51.1859 31.5127 51.4885 31.1171 51.4885 30.7215C51.4885 30.3258 51.1859 29.9302 50.8829 29.9302H46.9463Z" fill="#F6F8FC"/>
<path fill-rule="evenodd" clip-rule="evenodd" d="M41.4135 55.8138C41.8712 51.9305 45.0779 49.1204 48.8645 49.1204C52.5131 49.1204 56.05 51.816 56.3241 55.8884C56.8063 60.3878 56.8485 67.1733 54.9178 72.2187C54.2798 74.0346 53.5216 75.5719 52.614 76.6997C51.7114 77.8212 50.4285 78.8056 48.7852 78.8056C47.1419 78.8056 45.859 77.8212 44.9564 76.6997C44.0431 75.565 43.2814 74.0159 42.6409 72.1854C42.6326 72.1622 42.625 72.1391 42.6177 72.1156C41.0474 67.1301 41.0819 60.3707 41.4033 55.9195C41.4058 55.8843 41.4093 55.849 41.4135 55.8138ZM45.8355 56.3179C45.5271 60.6461 45.5658 66.5975 46.8389 70.6725C47.3858 72.2269 47.9302 73.2209 48.3839 73.7846C48.5682 74.0137 48.703 74.132 48.7852 74.1907C48.8674 74.132 49.0022 74.0137 49.1865 73.7846C49.6436 73.2167 50.1925 72.212 50.7435 70.6376C50.7515 70.615 50.7597 70.5925 50.7683 70.5703C52.3126 66.5588 52.3618 60.6292 51.897 56.342C51.8929 56.3037 51.8897 56.2656 51.8875 56.2272C51.8117 54.9427 50.5995 53.6934 48.8645 53.6934C47.2659 53.6934 46.0328 54.8323 45.8355 56.3179Z" fill="#F6F8FC"/>
<path fill-rule="evenodd" clip-rule="evenodd" d="M49.8791 61.5414C49.2912 61.9189 48.5371 61.9189 47.9493 61.5414L43.2373 58.5152C42.4077 57.9822 42.1669 56.8776 42.6999 56.048C43.2329 55.2181 44.3375 54.9776 45.1671 55.5103L48.9143 57.9169L52.6613 55.5103C53.4912 54.9776 54.5958 55.2181 55.1285 56.048C55.6614 56.8776 55.4206 57.9822 54.5911 58.5152L49.8791 61.5414Z" fill="#F6F8FC"/>
<path fill-rule="evenodd" clip-rule="evenodd" d="M49.8791 69.8004C49.2912 70.1779 48.5371 70.1779 47.9493 69.8004L43.2373 66.7742C42.4077 66.2413 42.1669 65.1366 42.6999 64.3071C43.2329 63.4771 44.3375 63.2367 45.1671 63.7693L48.9143 66.1759L52.6613 63.7693C53.4912 63.2367 54.5958 63.4771 55.1285 64.3071C55.6614 65.1366 55.4206 66.2413 54.5911 66.7742L49.8791 69.8004Z" fill="#F6F8FC"/>
</svg>
