<svg width="78" height="79" viewBox="0 0 78 79" fill="none" xmlns="http://www.w3.org/2000/svg">
<g clip-path="url(#clip0_4216_3700)">
<path d="M34.9702 35.7215C33.9788 35.0915 44.1032 35.0502 43.1017 35.7215C42.0998 36.3925 41.0054 37.4108 41.0054 38.2268C41.0054 39.0424 41.1913 39.2283 42.6988 40.2197C44.2063 41.2107 33.323 41.2777 34.7944 40.2555C36.2658 39.2334 36.5859 39.0526 36.5859 38.2268C36.5859 37.4007 35.9612 36.3512 34.9702 35.7215Z" fill="#F6F8FC"/>
<path fill-rule="evenodd" clip-rule="evenodd" d="M20.4188 67.9393C25.9397 71.5321 32.3873 73.4403 38.9742 73.4305C45.5614 73.4206 52.0033 71.4931 57.5135 67.8838C63.0236 64.2742 67.3638 59.1387 70.0042 53.1042C72.6446 47.0693 73.4713 40.3964 72.3832 33.9C71.2947 27.4035 68.339 21.3641 63.8761 16.5193C62.9852 15.5522 63.0468 14.046 64.0141 13.1552C64.981 12.2644 66.4873 12.3262 67.3781 13.2933C72.4673 18.8181 75.8383 25.705 77.079 33.1132C78.3201 40.5217 77.3775 48.1311 74.3663 55.0127C71.3553 61.8946 66.4061 67.7509 60.1225 71.8668C53.8389 75.9827 46.4931 78.1805 38.9815 78.1919C31.4698 78.203 24.1175 76.0274 17.8217 71.9302C11.5259 67.8331 6.55897 61.9917 3.52729 55.119C0.495599 48.2463 -0.469798 40.6398 0.74898 33.2277C1.96773 25.8157 5.31792 18.9186 10.3906 13.3786C11.2786 12.4089 12.7845 12.3425 13.7543 13.2305C14.724 14.1184 14.7903 15.6244 13.9024 16.5941C9.45399 21.4523 6.51614 27.5003 5.44739 34.0002C4.3786 40.5002 5.22519 47.1705 7.88374 53.1971C10.5423 59.2241 14.8979 64.3463 20.4188 67.9393Z" fill="#8493AD"/>
<path fill-rule="evenodd" clip-rule="evenodd" d="M48.0751 6.83659C42.039 5.14576 35.6523 5.16035 29.6241 6.87876C28.3595 7.23921 27.0423 6.50635 26.6816 5.24185C26.3212 3.97736 27.0541 2.66011 28.3186 2.29966C35.1932 0.340093 42.4761 0.323438 49.3593 2.25157C50.6254 2.60624 51.3643 3.92013 51.0096 5.18624C50.6549 6.45235 49.3412 7.19124 48.0751 6.83659Z" fill="#8493AD"/>
<path d="M41.5972 20.8805C45.0332 13.6198 50.2931 12.0921 57.0332 12.3357C59.8227 12.4365 59.5368 8.48623 57.2333 8.46977C54.9299 8.45327 50.8295 9.67786 47.8278 11.6108C46.4268 12.5773 45.1807 13.6328 44.0006 15.3231C42.7821 17.068 41.9972 18.9475 41.5972 20.8805Z" fill="#F6F8FC"/>
<path d="M36.1942 20.8805C32.7579 13.6198 27.498 12.0921 20.758 12.3357C17.9686 12.4365 18.2545 8.48623 20.5579 8.46977C22.8612 8.45327 26.9619 9.67786 29.9636 11.6108C31.3642 12.5773 32.6103 13.6328 33.7908 15.3231C35.009 17.068 35.7939 18.9475 36.1942 20.8805Z" fill="#F6F8FC"/>
<path fill-rule="evenodd" clip-rule="evenodd" d="M38.9229 36.8394C36.9093 36.8394 35.1099 36.1184 33.8683 34.9636L23.3285 56.7308C22.7914 57.935 20.822 58.0511 20.002 57.002C19.9894 56.9855 19.9679 56.9586 19.9384 56.9221C19.2717 56.0928 14.5352 50.2013 17.4314 43.5796C20.4556 36.5295 33.1573 27.0602 33.611 26.6535C35.3117 25.4337 36.7187 24.5105 38.9229 24.5105C41.0991 24.5105 43.1158 25.7522 44.2674 26.6535C45.419 27.5547 57.4418 36.6903 60.3969 43.5799C63.293 50.2013 58.5566 56.0928 57.8901 56.9221C57.8606 56.9586 57.839 56.9855 57.8263 57.002C57.0066 58.0515 55.0371 57.935 54.4997 56.7308L43.9654 34.975C42.724 36.1228 40.93 36.8394 38.9229 36.8394ZM41.2054 29.2748L41.3961 29.6682C41.4592 29.849 41.4935 30.0378 41.4935 30.23V31.1199C41.4935 32.2639 40.2838 33.2806 38.9229 33.2806C37.5622 33.2806 36.3522 32.2639 36.3522 31.1199V30.23C36.3522 29.0861 37.5622 28.0693 38.9229 28.0693C39.8828 28.0693 40.7673 28.5753 41.2054 29.2748ZM28.7721 35.7161C25.5968 38.6988 22.4212 42.0882 21.2117 44.9354C20.1532 47.2402 20.6068 49.6807 21.2117 51.4433L28.7721 35.7161ZM56.6167 44.9354C55.407 42.0882 52.2318 38.6988 49.0562 35.7161L56.6167 51.4433C57.2217 49.6807 57.6753 47.2402 56.6167 44.9354Z" fill="#F6F8FC"/>
<path fill-rule="evenodd" clip-rule="evenodd" d="M37.1296 25.1151H40.6995C43.1712 25.1151 45.0933 23.193 45.0933 20.7215C45.0933 18.25 43.1712 16.3278 40.6995 16.3278L37.1296 16.3278C34.6583 16.3278 32.7358 18.25 32.7358 20.7215C32.7358 23.193 34.6583 25.1151 37.1296 25.1151ZM36.9463 19.9303C36.6436 19.9303 36.3407 20.3259 36.3407 20.7216C36.3407 21.1172 36.6436 21.5128 36.9463 21.5128H40.8829C41.1859 21.5128 41.4885 21.1172 41.4885 20.7216C41.4885 20.3259 41.1859 19.9303 40.8829 19.9303H36.9463Z" fill="#F6F8FC"/>
<path fill-rule="evenodd" clip-rule="evenodd" d="M31.4135 45.8138C31.8712 41.9305 35.0779 39.1204 38.8645 39.1204C42.5131 39.1204 46.05 41.816 46.3241 45.8884C46.8063 50.3878 46.8485 57.1733 44.9178 62.2187C44.2798 64.0346 43.5216 65.5719 42.614 66.6997C41.7114 67.8212 40.4285 68.8056 38.7852 68.8056C37.1419 68.8056 35.859 67.8212 34.9564 66.6997C34.0431 65.565 33.2814 64.0159 32.6409 62.1854C32.6326 62.1622 32.625 62.1391 32.6177 62.1156C31.0474 57.1301 31.0819 50.3707 31.4033 45.9195C31.4058 45.8843 31.4093 45.849 31.4135 45.8138ZM35.8355 46.3179C35.5271 50.6461 35.5658 56.5975 36.8389 60.6725C37.3858 62.2269 37.9302 63.2209 38.3839 63.7846C38.5682 64.0137 38.703 64.132 38.7852 64.1907C38.8674 64.132 39.0022 64.0137 39.1865 63.7846C39.6436 63.2167 40.1925 62.212 40.7435 60.6376C40.7515 60.615 40.7597 60.5925 40.7683 60.5703C42.3126 56.5588 42.3618 50.6292 41.897 46.342C41.8929 46.3037 41.8897 46.2656 41.8875 46.2272C41.8117 44.9427 40.5995 43.6934 38.8645 43.6934C37.2659 43.6934 36.0328 44.8323 35.8355 46.3179Z" fill="#F6F8FC"/>
<path fill-rule="evenodd" clip-rule="evenodd" d="M39.8791 51.5414C39.2912 51.9189 38.5371 51.9189 37.9493 51.5414L33.2373 48.5152C32.4077 47.9822 32.1669 46.8776 32.6999 46.048C33.2329 45.2181 34.3375 44.9776 35.1671 45.5103L38.9143 47.9169L42.6613 45.5103C43.4912 44.9776 44.5958 45.2181 45.1285 46.048C45.6614 46.8776 45.4206 47.9822 44.5911 48.5152L39.8791 51.5414Z" fill="#F6F8FC"/>
<path fill-rule="evenodd" clip-rule="evenodd" d="M39.8791 59.8004C39.2912 60.1779 38.5371 60.1779 37.9493 59.8004L33.2373 56.7742C32.4077 56.2413 32.1669 55.1366 32.6999 54.3071C33.2329 53.4771 34.3375 53.2367 35.1671 53.7693L38.9143 56.1759L42.6613 53.7693C43.4912 53.2367 44.5958 53.4771 45.1285 54.3071C45.6614 55.1366 45.4206 56.2413 44.5911 56.7742L39.8791 59.8004Z" fill="#F6F8FC"/>
</g>
<defs>
<clipPath id="clip0_4216_3700">
<rect width="78" height="79" fill="white"/>
</clipPath>
</defs>
</svg>
