<svg width="16" height="16" viewBox="0 0 16 16" fill="none" xmlns="http://www.w3.org/2000/svg">
<path d="M2.56569 13.8794C2.25326 13.567 2.25327 13.0604 2.56569 12.748L12.748 2.56568C13.0604 2.25328 13.567 2.25326 13.8794 2.56568C14.1918 2.8781 14.1918 3.38465 13.8794 3.69705L3.69706 13.8794C3.38464 14.1918 2.8781 14.1918 2.56569 13.8794Z" fill="currentColor"/>
<path d="M2.56568 2.56569C2.87808 2.25329 3.38464 2.25327 3.69706 2.56569L13.8794 12.748C14.1918 13.0604 14.1918 13.567 13.8794 13.8794C13.567 14.1918 13.0604 14.1918 12.748 13.8794L2.56568 3.69706C2.25327 3.38464 2.25329 2.87809 2.56568 2.56569Z" fill="currentColor"/>
</svg>
