<svg width="16" height="16" viewBox="0 0 16 16" fill="none" xmlns="http://www.w3.org/2000/svg">
<path d="M4.4175 3.29895V2.47421C4.4175 1.10775 5.56505 0 6.98063 0H8.68938C10.105 0 11.2525 1.10775 11.2525 2.47421V3.29895H13.8156C14.2875 3.29895 14.67 3.6682 14.67 4.12368C14.67 4.57915 14.2875 4.94837 13.8157 4.94842C13.8157 4.97108 13.8147 4.99393 13.8127 5.01692L13.1542 12.645C13.0066 14.3549 11.5259 15.67 9.74854 15.67H5.92158C4.14419 15.67 2.6635 14.3549 2.51589 12.645L1.85737 5.01692C1.85539 4.99393 1.8544 4.97108 1.85438 4.94842C1.38252 4.94842 1 4.57917 1 4.12368C1 3.6682 1.38252 3.29895 1.85438 3.29895H4.4175ZM6.12625 3.29895V2.47421C6.12625 2.01872 6.50875 1.64947 6.98063 1.64947H8.68938C9.16125 1.64947 9.54375 2.01872 9.54375 2.47421V3.29895H6.12625ZM3.56613 4.94842L4.21874 12.508C4.29254 13.363 5.03289 14.0205 5.92158 14.0205H9.74854C10.6372 14.0205 11.3776 13.363 11.4513 12.508L12.104 4.94842H3.56613Z" fill="currentColor"/>
</svg>
