<svg width="20" height="20" viewBox="0 0 20 20" fill="none" xmlns="http://www.w3.org/2000/svg">
<path d="M12.9635 18.2888C12.4084 17.939 12.2958 17.2774 12.7122 16.8111L14.9739 14.2777H7.43485C3.69923 14.2777 0.598202 11.9953 0 9H2.56714C3.12508 10.821 5.09291 12.1666 7.43485 12.1666H20L14.7226 18.0777C14.3062 18.5441 13.5186 18.6386 12.9635 18.2888Z" fill="currentColor"/>
<path d="M12.5652 7.33336C14.9071 7.33336 16.8749 8.67897 17.4329 10.5H20C19.4019 7.50466 16.3008 5.22226 12.5652 5.22226H5.02607L7.28781 2.68894C7.70422 2.22257 7.59163 1.56095 7.0365 1.21118C6.48134 0.861389 5.69375 0.955913 5.27738 1.42229L0 7.33336H12.5652Z" fill="currentColor"/>
</svg>
