<svg width="24" height="24" viewBox="0 0 24 24" fill="none" xmlns="http://www.w3.org/2000/svg">
<path d="M14.4 20.8C13.9582 20.4686 13.8686 19.8418 14.2 19.4L16 17L10 17C7.027 17 4.55904 14.8377 4.08296 12L6.12602 12C6.57006 13.7252 8.13616 15 10 15L20 15L15.8 20.6C15.4686 21.0418 14.8418 21.1314 14.4 20.8Z" fill="currentColor"/>
<path d="M14 9C15.8638 9 17.4299 10.2748 17.874 12L19.917 12C19.441 9.16229 16.973 7 14 7L8 7L9.8 4.6C10.1314 4.15817 10.0418 3.53137 9.6 3.2C9.15817 2.86862 8.53137 2.95817 8.2 3.4L4 9L14 9Z" fill="currentColor"/>
</svg>
