<svg width="16" height="16" viewBox="0 0 16 16" fill="none" xmlns="http://www.w3.org/2000/svg">
<path d="M0 3.46667C0 3.02484 0.358172 2.66667 0.8 2.66667H15.2C15.6418 2.66667 16 3.02484 16 3.46667V3.46667C16 3.90849 15.6418 4.26667 15.2 4.26667H0.8C0.358173 4.26667 0 3.90849 0 3.46667V3.46667Z" fill="currentColor"/>
<path d="M0 12.8C0 12.3582 0.358172 12 0.8 12H15.2C15.6418 12 16 12.3582 16 12.8V12.8C16 13.2418 15.6418 13.6 15.2 13.6H0.8C0.358173 13.6 0 13.2418 0 12.8V12.8Z" fill="currentColor"/>
<path d="M0 8.18462C0 7.74279 0.358172 7.38462 0.8 7.38462H15.2C15.6418 7.38462 16 7.74279 16 8.18462V8.18462C16 8.62644 15.6418 8.98462 15.2 8.98462H0.8C0.358173 8.98462 0 8.62644 0 8.18462V8.18462Z" fill="currentColor"/>
</svg>
