<svg width="16" height="16" viewBox="0 0 16 16" fill="none" xmlns="http://www.w3.org/2000/svg">
<g clip-path="url(#clip0_3_7)">
<path d="M9.6 1.6C9.6 0.71634 8.8836 0 8 0C7.1164 0 6.4 0.71634 6.4 1.6V6.4H1.6C0.71634 6.4 0 7.1164 0 8C0 8.8836 0.71634 9.6 1.6 9.6H6.4V14.4C6.4 15.2836 7.1164 16 8 16C8.8836 16 9.6 15.2836 9.6 14.4V9.6H14.4C15.2836 9.6 16 8.8836 16 8C16 7.1164 15.2836 6.4 14.4 6.4H9.6V1.6Z" fill="currentColor"/>
</g>
<defs>
<clipPath id="clip0_3_7">
<rect width="16" height="16" fill="white"/>
</clipPath>
</defs>
</svg>
