<svg width="20" height="20" viewBox="0 0 20 20" fill="none" xmlns="http://www.w3.org/2000/svg">
<g clip-path="url(#clip0_1_20)">
<path fill-rule="evenodd" clip-rule="evenodd" d="M13.8367 10.5315C15.0723 9.4315 15.8535 7.80925 15.8535 6C15.8535 2.68629 13.2328 0 9.99988 0C6.767 0 4.14623 2.68629 4.14623 6C4.14623 7.80925 4.92752 9.4315 6.16316 10.5316C2.54444 12.074 0 15.7324 0 20H2.43902C2.43902 15.7197 5.82419 12.25 10 12.25C14.1759 12.25 17.561 15.7197 17.561 20H20C20 15.7324 17.4555 12.0739 13.8367 10.5315ZM13.4145 6C13.4145 7.933 11.8857 9.5 9.99988 9.5C8.11403 9.5 6.58525 7.933 6.58525 6C6.58525 4.067 8.11403 2.5 9.99988 2.5C11.8857 2.5 13.4145 4.067 13.4145 6Z" fill="currentColor"/>
</g>
<defs>
<clipPath id="clip0_1_20">
<rect width="20" height="20" fill="white"/>
</clipPath>
</defs>
</svg>
