<svg width="230" height="99" viewBox="0 0 230 99" fill="none" xmlns="http://www.w3.org/2000/svg">
<path d="M127.692 62.0225L134.849 36.8989H128.822L124.453 55.0543L119.707 36.8989H115.526L110.742 55.0543L106.335 36.8989H100.346L107.541 62.0225H113.228L117.598 44.7713L122.005 62.0225H127.692Z" fill="#485776"/>
<path d="M164.418 62.0225L154.738 36.8989H148.033L138.315 62.0225H144.417L145.999 57.7661H156.772L158.316 62.0225H164.418ZM155.303 53.0579H147.468L151.385 42.2476L155.303 53.0579Z" fill="#485776"/>
<path d="M180.681 62.4745C187.461 62.4745 190.738 59.009 190.738 54.4138C190.738 45.0348 176.312 47.7092 176.312 43.7164C176.312 42.2098 177.592 41.1927 179.89 41.1927C182.451 41.1927 185.163 42.0591 187.197 43.9426L190.173 40.025C187.687 37.7275 184.372 36.522 180.38 36.522C174.466 36.522 170.85 39.9875 170.85 44.1684C170.85 53.6229 185.314 50.5716 185.314 55.0165C185.314 56.4479 183.883 57.8038 180.945 57.8038C177.479 57.8038 174.729 56.2595 172.959 54.4138L170.059 58.4817C172.394 60.8547 175.86 62.4745 180.681 62.4745Z" fill="#485776"/>
<path d="M204.961 62.0225V53.0954H211.364C216.788 53.0954 219.802 49.3665 219.802 44.9971C219.802 40.59 216.826 36.8989 211.364 36.8989H199.612V62.0225H204.961ZM210.649 48.3872H204.961V41.6071H210.649C212.758 41.6071 214.34 42.8878 214.34 44.9971C214.34 47.0687 212.758 48.3872 210.649 48.3872Z" fill="#485776"/>
<path d="M44.9702 45.7152C43.9788 45.0851 54.1032 45.0439 53.1017 45.7152C52.0998 46.3861 51.0054 47.4045 51.0054 48.2204C51.0054 49.036 51.1913 49.222 52.6988 50.213C54.2063 51.2044 43.323 51.2713 44.7944 50.2492C46.2658 49.227 46.5859 49.0462 46.5859 48.2204C46.5859 47.3943 45.9612 46.3449 44.9702 45.7152Z" fill="#485776"/>
<path fill-rule="evenodd" clip-rule="evenodd" d="M30.4188 77.9329C35.9397 81.5256 42.3873 83.4338 48.9742 83.424C55.5614 83.4142 62.0033 81.4866 67.5135 77.8774C73.0236 74.2678 77.3638 69.1323 80.0042 63.0977C82.6446 57.0628 83.4713 50.39 82.3832 43.8935C81.2948 37.397 78.339 31.3577 73.8761 26.5128C72.9852 25.5457 73.0468 24.0396 74.0141 23.1488C74.981 22.2579 76.4873 22.3197 77.3781 23.2868C82.4673 28.8116 85.8383 35.6985 87.079 43.1068C88.3201 50.5153 87.3775 58.1246 84.3663 65.0062C81.3553 71.8882 76.4061 77.7444 70.1225 81.8603C63.8389 85.9762 56.4931 88.1741 48.9815 88.1855C41.4698 88.1966 34.1175 86.0209 27.8217 81.9238C21.5259 77.8266 16.559 71.9849 13.5273 65.1125C10.4956 58.2398 9.5302 50.6333 10.749 43.2213C11.9677 35.8093 15.3179 28.9121 20.3906 23.3721C21.2786 22.4024 22.7845 22.3361 23.7543 23.224C24.724 24.112 24.7903 25.6179 23.9024 26.5876C19.454 31.4458 16.5161 37.4938 15.4474 43.9938C14.3786 50.4934 15.2252 57.164 17.8837 63.1907C20.5423 69.2173 24.8979 74.3398 30.4188 77.9329Z" fill="#C3D0E4"/>
<path fill-rule="evenodd" clip-rule="evenodd" d="M58.0746 16.8305C52.0385 15.1397 45.6518 15.1543 39.6236 16.8727C38.359 17.2331 37.0419 16.5002 36.6811 15.2358C36.3208 13.9713 37.0536 12.654 38.3181 12.2936C45.1927 10.334 52.4756 10.3173 59.3588 12.2455C60.6249 12.6001 61.3638 13.914 61.0091 15.1801C60.6544 16.4462 59.3407 17.1851 58.0746 16.8305Z" fill="#C3D0E4"/>
<path d="M51.5972 30.874C55.0332 23.6134 60.2931 22.0856 67.0332 22.3292C69.8227 22.4301 69.5369 18.4798 67.2334 18.4633C64.9299 18.4468 60.8295 19.6714 57.8278 21.6044C56.4269 22.5708 55.1807 23.6264 54.0006 25.3167C52.7821 27.0615 51.9972 28.9411 51.5972 30.874Z" fill="#485776"/>
<path d="M46.1942 30.874C42.7579 23.6134 37.498 22.0856 30.758 22.3292C27.9686 22.4301 28.2545 18.4798 30.5579 18.4633C32.8612 18.4468 36.9619 19.6714 39.9636 21.6044C41.3642 22.5708 42.6103 23.6264 43.7908 25.3167C45.009 27.0615 45.7939 28.9411 46.1942 30.874Z" fill="#485776"/>
<path fill-rule="evenodd" clip-rule="evenodd" d="M48.9233 46.8331C46.9098 46.8331 45.1104 46.1117 43.8687 44.9573L33.329 66.7245C32.7919 67.9287 30.8224 68.0448 30.0025 66.9957C29.9899 66.9792 29.9684 66.9522 29.9389 66.9158C29.2722 66.0865 24.5357 60.195 27.4319 53.5732C30.4561 46.5232 43.1578 37.0538 43.6115 36.6471C45.3122 35.4273 46.7192 34.5042 48.9233 34.5042C51.0996 34.5042 53.1163 35.7458 54.2679 36.6471C55.4195 37.5484 67.4423 46.684 70.3974 53.5732C73.2935 60.195 68.5571 66.0865 67.8906 66.9158C67.8611 66.9522 67.8395 66.9792 67.8268 66.9957C67.0071 68.0448 65.0376 67.9287 64.5002 66.7245L53.9659 44.9687C52.7245 46.1165 50.9305 46.8331 48.9233 46.8331ZM51.2059 39.2682L51.3966 39.6619C51.4597 39.8427 51.494 40.0314 51.494 40.2237V41.1136C51.494 42.2575 50.2843 43.2743 48.9233 43.2743C47.5627 43.2743 46.3527 42.2575 46.3527 41.1136V40.2237C46.3527 39.0797 47.5627 38.063 48.9233 38.063C49.8833 38.063 50.7678 38.569 51.2059 39.2682ZM38.7726 45.7098C35.5973 48.6925 32.4217 52.0819 31.2121 54.9291C30.1537 57.2339 30.6073 59.6744 31.2121 61.437L38.7726 45.7098ZM66.6172 54.9291C65.4075 52.0819 62.2323 48.6925 59.0567 45.7098L66.6172 61.437C67.2222 59.6744 67.6758 57.2339 66.6172 54.9291Z" fill="#485776"/>
<path fill-rule="evenodd" clip-rule="evenodd" d="M47.1291 35.1089H50.6991C53.1707 35.1089 55.0929 33.1867 55.0929 30.7153C55.0929 28.2438 53.1707 26.3215 50.6991 26.3215H47.1291C44.6578 26.3215 42.7354 28.2438 42.7354 30.7153C42.7354 33.1867 44.6578 35.1089 47.1291 35.1089ZM46.9458 29.9241C46.6431 29.9241 46.3402 30.3197 46.3402 30.7153C46.3402 31.111 46.6431 31.5066 46.9458 31.5066H50.8824C51.1854 31.5066 51.488 31.111 51.488 30.7153C51.488 30.3197 51.1854 29.9241 50.8824 29.9241H46.9458Z" fill="#485776"/>
<path fill-rule="evenodd" clip-rule="evenodd" d="M41.4135 55.8075C41.8712 51.9241 45.0779 49.114 48.8645 49.114C52.5131 49.114 56.05 51.8096 56.3241 55.882C56.8063 60.3815 56.8485 67.167 54.9178 72.2124C54.2798 74.0283 53.5216 75.5656 52.614 76.6934C51.7114 77.8148 50.4285 78.7992 48.7852 78.7992C47.1419 78.7992 45.859 77.8148 44.9564 76.6934C44.0431 75.5586 43.2814 74.0095 42.6409 72.1791C42.6326 72.1559 42.625 72.1327 42.6177 72.1093C41.0474 67.1238 41.0819 60.3643 41.4033 55.9131C41.4058 55.8779 41.4093 55.8427 41.4135 55.8075ZM45.8355 56.3116C45.5271 60.6397 45.5658 66.5912 46.8389 70.6661C47.3858 72.2206 47.9302 73.2145 48.3839 73.7783C48.5682 74.0073 48.703 74.1253 48.7852 74.1843C48.8674 74.1253 49.0022 74.0073 49.1865 73.7783C49.6436 73.2104 50.1925 72.2057 50.7435 70.6312C50.7514 70.6087 50.7597 70.5862 50.7683 70.564C52.3126 66.5525 52.3618 60.6229 51.897 56.3357C51.8929 56.2973 51.8897 56.2592 51.8875 56.2209C51.8117 54.9363 50.5995 53.6871 48.8645 53.6871C47.2659 53.6871 46.0328 54.8259 45.8355 56.3116Z" fill="#485776"/>
<path fill-rule="evenodd" clip-rule="evenodd" d="M49.8791 61.535C49.2912 61.9125 48.5371 61.9125 47.9493 61.535L43.2373 58.5089C42.4077 57.9759 42.1669 56.8713 42.6999 56.0417C43.2329 55.2118 44.3375 54.9713 45.1671 55.5039L48.9143 57.9105L52.6613 55.5039C53.4912 54.9713 54.5958 55.2118 55.1285 56.0417C55.6614 56.8713 55.4206 57.9759 54.5911 58.5089L49.8791 61.535Z" fill="#485776"/>
<path fill-rule="evenodd" clip-rule="evenodd" d="M49.8791 69.7941C49.2912 70.1716 48.5371 70.1716 47.9493 69.7941L43.2373 66.7679C42.4077 66.2349 42.1669 65.1303 42.6999 64.3007C43.2329 63.4708 44.3375 63.2303 45.1671 63.763L48.9143 66.1696L52.6613 63.763C53.4912 63.2303 54.5958 63.4708 55.1285 64.3007C55.6614 65.1303 55.4206 66.2349 54.5911 66.7679L49.8791 69.7941Z" fill="#485776"/>
</svg>
