<svg width="78" height="79" viewBox="0 0 78 79" fill="none" xmlns="http://www.w3.org/2000/svg">
<g clip-path="url(#clip0_4216_3715)">
<path d="M34.9702 35.7152C33.9788 35.0851 44.1032 35.0439 43.1017 35.7152C42.0998 36.3861 41.0054 37.4045 41.0054 38.2204C41.0054 39.036 41.1913 39.222 42.6988 40.213C44.2063 41.2044 33.323 41.2713 34.7944 40.2492C36.2658 39.227 36.5859 39.0462 36.5859 38.2204C36.5859 37.3943 35.9612 36.3449 34.9702 35.7152Z" fill="#485776"/>
<path fill-rule="evenodd" clip-rule="evenodd" d="M20.4188 67.9329C25.9397 71.5256 32.3873 73.4338 38.9742 73.424C45.5614 73.4142 52.0033 71.4866 57.5135 67.8774C63.0236 64.2678 67.3638 59.1323 70.0042 53.0977C72.6446 47.0628 73.4713 40.39 72.3832 33.8935C71.2948 27.397 68.339 21.3577 63.8761 16.5128C62.9852 15.5457 63.0468 14.0396 64.0141 13.1488C64.981 12.2579 66.4873 12.3197 67.3781 13.2868C72.4673 18.8116 75.8383 25.6985 77.079 33.1068C78.3201 40.5153 77.3775 48.1246 74.3663 55.0062C71.3553 61.8882 66.4061 67.7444 60.1225 71.8603C53.8389 75.9762 46.4931 78.1741 38.9815 78.1855C31.4698 78.1966 24.1175 76.0209 17.8217 71.9238C11.5259 67.8266 6.55897 61.9849 3.52729 55.1125C0.4956 48.2398 -0.469798 40.6333 0.74898 33.2213C1.96773 25.8093 5.31792 18.9121 10.3906 13.3721C11.2786 12.4024 12.7845 12.3361 13.7543 13.224C14.724 14.112 14.7903 15.6179 13.9024 16.5876C9.45399 21.4458 6.51614 27.4938 5.44739 33.9938C4.3786 40.4934 5.22519 47.164 7.88374 53.1907C10.5423 59.2173 14.8979 64.3398 20.4188 67.9329Z" fill="#C3D0E4"/>
<path fill-rule="evenodd" clip-rule="evenodd" d="M48.0746 6.83049C42.0385 5.13966 35.6518 5.15425 29.6236 6.87265C28.359 7.2331 27.0419 6.50021 26.6811 5.23575C26.3208 3.97126 27.0536 2.65401 28.3181 2.29356C35.1927 0.33399 42.4756 0.317335 49.3588 2.24546C50.6249 2.60011 51.3638 3.91403 51.0091 5.18014C50.6544 6.44625 49.3407 7.18514 48.0746 6.83049Z" fill="#C3D0E4"/>
<path d="M41.5972 20.8742C45.0332 13.6135 50.2931 12.0857 57.0332 12.3294C59.8227 12.4302 59.5369 8.47992 57.2334 8.46342C54.9299 8.44696 50.8295 9.67154 47.8278 11.6045C46.4269 12.571 45.1807 13.6265 44.0006 15.3168C42.7821 17.0616 41.9972 18.9412 41.5972 20.8742Z" fill="#485776"/>
<path d="M36.1942 20.8742C32.7579 13.6135 27.498 12.0857 20.758 12.3294C17.9686 12.4302 18.2545 8.47992 20.5579 8.46342C22.8612 8.44696 26.9619 9.67154 29.9636 11.6045C31.3642 12.571 32.6103 13.6265 33.7908 15.3168C35.009 17.0616 35.7939 18.9412 36.1942 20.8742Z" fill="#485776"/>
<path fill-rule="evenodd" clip-rule="evenodd" d="M38.9233 36.8331C36.9098 36.8331 35.1104 36.1117 33.8687 34.9573L23.329 56.7245C22.7919 57.9287 20.8224 58.0448 20.0025 56.9957C19.9899 56.9792 19.9684 56.9522 19.9389 56.9158C19.2722 56.0865 14.5357 50.195 17.4319 43.5732C20.4561 36.5232 33.1578 27.0538 33.6115 26.6471C35.3122 25.4273 36.7192 24.5042 38.9233 24.5042C41.0996 24.5042 43.1163 25.7458 44.2679 26.6471C45.4195 27.5484 57.4423 36.684 60.3974 43.5732C63.2935 50.195 58.5571 56.0865 57.8906 56.9158C57.8611 56.9522 57.8395 56.9792 57.8268 56.9957C57.0071 58.0448 55.0376 57.9287 54.5002 56.7245L43.9659 34.9687C42.7245 36.1165 40.9305 36.8331 38.9233 36.8331ZM41.2059 29.2682L41.3966 29.6619C41.4597 29.8427 41.494 30.0314 41.494 30.2237V31.1136C41.494 32.2575 40.2843 33.2743 38.9233 33.2743C37.5627 33.2743 36.3527 32.2575 36.3527 31.1136V30.2237C36.3527 29.0797 37.5627 28.063 38.9233 28.063C39.8833 28.063 40.7678 28.569 41.2059 29.2682ZM28.7726 35.7098C25.5973 38.6925 22.4217 42.0819 21.2121 44.9291C20.1537 47.2339 20.6073 49.6744 21.2121 51.437L28.7726 35.7098ZM56.6172 44.9291C55.4075 42.0819 52.2323 38.6925 49.0567 35.7098L56.6172 51.437C57.2222 49.6744 57.6758 47.2339 56.6172 44.9291Z" fill="#485776"/>
<path fill-rule="evenodd" clip-rule="evenodd" d="M37.1291 25.1089H40.6991C43.1707 25.1089 45.0929 23.1867 45.0929 20.7153C45.0929 18.2438 43.1707 16.3215 40.6991 16.3215H37.1291C34.6578 16.3215 32.7354 18.2438 32.7354 20.7153C32.7354 23.1867 34.6578 25.1089 37.1291 25.1089ZM36.9458 19.9241C36.6431 19.9241 36.3402 20.3197 36.3402 20.7153C36.3402 21.111 36.6431 21.5066 36.9458 21.5066H40.8824C41.1854 21.5066 41.488 21.111 41.488 20.7153C41.488 20.3197 41.1854 19.9241 40.8824 19.9241H36.9458Z" fill="#485776"/>
<path fill-rule="evenodd" clip-rule="evenodd" d="M31.4135 45.8075C31.8712 41.9241 35.0779 39.114 38.8645 39.114C42.5131 39.114 46.05 41.8096 46.3241 45.882C46.8063 50.3815 46.8485 57.167 44.9178 62.2124C44.2798 64.0283 43.5216 65.5656 42.614 66.6934C41.7114 67.8148 40.4285 68.7992 38.7852 68.7992C37.1419 68.7992 35.859 67.8148 34.9564 66.6934C34.0431 65.5586 33.2814 64.0095 32.6409 62.1791C32.6326 62.1559 32.625 62.1327 32.6177 62.1093C31.0474 57.1238 31.0819 50.3643 31.4033 45.9131C31.4058 45.8779 31.4093 45.8427 31.4135 45.8075ZM35.8355 46.3116C35.5271 50.6397 35.5658 56.5912 36.8389 60.6661C37.3858 62.2206 37.9302 63.2145 38.3839 63.7783C38.5682 64.0073 38.703 64.1253 38.7852 64.1843C38.8674 64.1253 39.0022 64.0073 39.1865 63.7783C39.6436 63.2104 40.1925 62.2057 40.7435 60.6312C40.7514 60.6087 40.7597 60.5862 40.7683 60.564C42.3126 56.5525 42.3618 50.6229 41.897 46.3357C41.8929 46.2973 41.8897 46.2592 41.8875 46.2209C41.8117 44.9363 40.5995 43.6871 38.8645 43.6871C37.2659 43.6871 36.0328 44.8259 35.8355 46.3116Z" fill="#485776"/>
<path fill-rule="evenodd" clip-rule="evenodd" d="M39.8791 51.535C39.2912 51.9125 38.5371 51.9125 37.9493 51.535L33.2373 48.5089C32.4077 47.9759 32.1669 46.8713 32.6999 46.0417C33.2329 45.2118 34.3375 44.9713 35.1671 45.5039L38.9143 47.9105L42.6613 45.5039C43.4912 44.9713 44.5958 45.2118 45.1285 46.0417C45.6614 46.8713 45.4206 47.9759 44.5911 48.5089L39.8791 51.535Z" fill="#485776"/>
<path fill-rule="evenodd" clip-rule="evenodd" d="M39.8791 59.7939C39.2912 60.1715 38.5371 60.1715 37.9493 59.7939L33.2373 56.7678C32.4077 56.2348 32.1669 55.1302 32.6999 54.3006C33.2329 53.4707 34.3375 53.2302 35.1671 53.7629L38.9143 56.1695L42.6613 53.7629C43.4912 53.2302 44.5958 53.4707 45.1285 54.3006C45.6614 55.1302 45.4206 56.2348 44.5911 56.7678L39.8791 59.7939Z" fill="#485776"/>
</g>
<defs>
<clipPath id="clip0_4216_3715">
<rect width="78" height="79" fill="white"/>
</clipPath>
</defs>
</svg>
